<?xml version="1.0" standalone="no"?>
<!DOCTYPE svg PUBLIC "-//W3C//DTD SVG 20010904//EN"
 "http://www.w3.org/TR/2001/REC-SVG-20010904/DTD/svg10.dtd">
<svg version="1.0" xmlns="http://www.w3.org/2000/svg"
 width="700.000000pt" height="700.000000pt" viewBox="0 0 700.000000 700.000000"
 preserveAspectRatio="xMidYMid meet">
<metadata>
Created by potrace 1.11, written by Peter Selinger 2001-2013
</metadata>
<g transform="translate(0.000000,700.000000) scale(0.100000,-0.100000)"
fill="#000000" stroke="none">
<path d="M0 3500 l0 -3500 3500 0 3500 0 0 3500 0 3500 -3500 0 -3500 0 0
-3500z m1868 653 c13 -25 480 -1255 484 -1273 2 -12 -12 -15 -86 -15 l-88 0
-44 125 c-24 69 -51 144 -60 168 l-16 42 -292 0 -293 0 -59 -167 -59 -168 -90
0 c-75 0 -89 3 -87 15 3 14 447 1184 478 1258 l13 32 95 0 c81 0 97 -3 104
-17z m3712 -624 c135 -353 247 -646 248 -650 2 -5 -38 -9 -90 -9 l-93 0 -59
165 -58 165 -295 -2 -295 -3 -58 -160 -57 -160 -92 -3 c-55 -2 -92 1 -89 7 1
5 113 297 248 650 l244 641 101 0 100 0 245 -641z m-2427 311 c61 -23 119 -75
150 -135 43 -85 47 -122 47 -493 l0 -353 -77 3 -78 3 -5 355 c-5 339 -6 357
-27 395 -43 81 -90 106 -195 106 -85 0 -140 -23 -190 -79 -72 -79 -72 -80 -78
-447 l-5 -330 -77 -3 -78 -3 0 491 0 490 80 0 80 0 0 -71 0 -72 40 46 c75 85
148 115 277 116 59 1 97 -5 136 -19z m1165 -15 c63 -34 96 -71 129 -141 36
-79 44 -182 41 -514 l-3 -305 -77 -3 -76 -3 -4 348 -3 348 -28 58 c-39 79 -90
109 -185 109 -122 0 -206 -53 -256 -161 -20 -43 -21 -65 -24 -374 l-3 -328
-77 3 -77 3 -3 488 -2 487 80 0 80 0 0 -72 1 -73 37 41 c88 98 155 125 297
121 89 -2 106 -6 153 -32z"/>
<path d="M1651 3682 c-63 -169 -116 -313 -118 -319 -4 -10 46 -13 231 -13 130
0 236 2 236 4 0 5 -231 630 -234 633 -1 2 -53 -136 -115 -305z"/>
<path d="M5228 3979 c-69 -183 -228 -618 -228 -622 0 -4 106 -7 235 -7 129 0
235 2 235 5 0 8 -221 607 -230 624 -6 11 -8 11 -12 0z"/>
</g>
</svg>
